/* XPM */
static char *result[] = {
/* columns rows colors chars-per-pixel */
"32 32 70 1 ",
"  c #CD0100",
". c #D10C00",
"X c #D21500",
"o c #D31B00",
"O c #D52301",
"+ c #D72B05",
"@ c #D52009",
"# c #D72D09",
"$ c #D7310A",
"% c #D8330D",
"& c #D73112",
"* c #D93513",
"= c #D93A15",
"- c #DA3C1A",
"; c #DA3F21",
": c #DB411C",
"> c #DB4423",
", c #DB4428",
"< c #DD4B2D",
"1 c #DD4E33",
"2 c #DE5535",
"3 c #DF5836",
"4 c #DF5739",
"5 c #DF583E",
"6 c #E05C3D",
"7 c #E05D43",
"8 c #E16245",
"9 c #E1644A",
"0 c #E2684D",
"q c #E36C53",
"w c #E47156",
"e c #E4745B",
"r c #E6785E",
"t c #E36C61",
"y c #E67E66",
"u c #E77F6B",
"i c #E7836D",
"p c #E8846E",
"a c #E88671",
"s c #E98974",
"d c #E98E7B",
"f c #EA917D",
"g c #EB9582",
"h c #EC9A87",
"j c #EC9C8A",
"k c #EEA595",
"l c #EEA798",
"z c #EFAA9B",
"x c #F0AFA2",
"c c #F1B4A4",
"v c #F1B4AA",
"b c #F2BBAD",
"n c #F0B1B0",
"m c #F2BDB2",
"M c #F3C1B7",
"N c #F4C4BA",
"B c #F4C8BF",
"V c #F6CCC3",
"C c #F6CFC8",
"Z c #F6D2CB",
"A c #F8DBD4",
"S c #F9E1DB",
"D c #FAE6E3",
"F c #FBEBE6",
"G c #FCEDEA",
"H c #FCF1EF",
"J c #FDF6F4",
"K c #FEF9F7",
"L c #FFFFFF",
"P c None",
/* pixels */
"PPPPPPPPPPPPPPPPPPPPPPPPPPPPPPPP",
"PPPPPPPPPPPPPPP##PPPPPPPPPPPPPPP",
"PPPPPPPPPPPP$OXXXXO#PPPPPPPPPPPP",
"PPPPPPPPPPOX=0sjjs0:XoPPPPPPPPPP",
"PPPPPPPP#.6VLLLLLLLLZ8X+PPPPPPPP",
"PPPPPPPo#NLLSf<>60fALLV&XPPPPPPP",
"PPPPPPX1KLN+ X31oOXX:mLL5XPPPPPP",
"PPPPPo1LLr.r0-LmX#%=O.wLL5oPPPPP",
"PPPP+&JL5 -LA ZL##%X#=.2LL-OPPPP",
"PPPPXvLe.= vL=xLSGKb*+-.qLMXPPPP",
"PPPo5LvX+o:bLLLLLLLLVO==.zL0oPPP",
"PPPomL1.uLLLLLVgwMLLL4O=O,LNoPPP",
"PP%*LZXodLFLLJo.X.DLL4O==XNL-#PP",
"PPO8LfX=:>oALLqX.-KLVoo=-XiLqOPP",
"PPopL0o=%+.gLLkopJLLHJio=O7LfX#P",
"P#XhL4+===O7LLJKLLLLLLL8O+<LloOP",
"P#XhL4O=*=%#DLLZa3-iLLLlo+<LlXOP",
"PPXaL9O====XxLLt O+ nLLboO5Lfo#P",
"PPO9LdX====oeLLMo$.#FLLkXXiLqOPP",
"PP%=LVX====#>LLKOOeFLLK,+XML:$PP",
"PPPomL<O==-# ZLLZHLLLZ-O+;LVoPPP",
"PPPo9Lx.==#<lKLLLLLD2XO-.kLqoPPP",
"PPPPXmLqX=owLLHLH*ALo$-X7LVXPPPP",
"PPPPO=LL1.#5mqoMLXaLrO.,LL;OPPPP",
"PPPPPo5LLq.OXo.uLr=x; 8LL9XPPPPP",
"PPPPPPX5LLb:XXo-y*. &cLL7XPPPPPP",
"PPPPPPPX*CLLZi8>O2iCLLA-XPPPPPPP",
"PPPPPPPP@X0ALLLLLLLLSqX@PPPPPPPP",
"PPPPPPPPPPoo>qgzzge>ooPPPPPPPPPP",
"PPPPPPPPPPPP#OXXoXo#PPPPPPPPPPPP",
"PPPPPPPPPPPPPP$++$PPPPPPPPPPPPPP",
"PPPPPPPPPPPPPPPPPPPPPPPPPPPPPPPP"
};
