/* XPM */
static char *result[] = {
/* columns rows colors chars-per-pixel */
"16 16 130 2 ",
"   c #C90000",
".  c #CA0000",
"X  c #CC0000",
"o  c #CD0000",
"O  c #CE0000",
"+  c #CE0500",
"@  c #CF0500",
"#  c #D10D00",
"$  c #D10F00",
"%  c #D00D0A",
"&  c #D11100",
"*  c #D21500",
"=  c #D21600",
"-  c #D31700",
";  c #D31800",
":  c #D31900",
">  c #D31A00",
",  c #D31B00",
"<  c #D31C00",
"1  c #D41D00",
"2  c #D41F06",
"3  c #D41E17",
"4  c #D52200",
"5  c #D52203",
"6  c #D52600",
"7  c #D62700",
"8  c #D62802",
"9  c #D62D06",
"0  c #D72E06",
"q  c #D72E07",
"w  c #D7300A",
"e  c #D72F15",
"r  c #D93914",
"t  c #DA3E18",
"y  c #D42826",
"u  c #DA3F23",
"i  c #DA402C",
"p  c #DD4C2B",
"a  c #DE5533",
"s  c #DE5234",
"d  c #DF5634",
"f  c #DE5536",
"g  c #DF563D",
"h  c #DF593A",
"j  c #DF5B3B",
"k  c #DF5A3C",
"l  c #E05E3D",
"z  c #DF5A41",
"x  c #DF5942",
"c  c #E05E45",
"v  c #E06047",
"b  c #E16147",
"n  c #E26746",
"m  c #E1614B",
"M  c #E1634A",
"N  c #E1654D",
"B  c #E2664D",
"V  c #E1644E",
"C  c #E2694C",
"Z  c #E36C4C",
"A  c #E36C53",
"S  c #E36B54",
"D  c #E5775A",
"F  c #E5735F",
"G  c #E57863",
"H  c #E47476",
"J  c #E7826B",
"K  c #E7836C",
"L  c #E8866E",
"P  c #E88671",
"I  c #E88674",
"U  c #E88872",
"Y  c #E98A74",
"T  c #E98B75",
"R  c #EA8E76",
"E  c #E98D7B",
"W  c #E98F7B",
"Q  c #E98D7C",
"!  c #EA917D",
"~  c #EB9580",
"^  c #EA9483",
"/  c #EC9B88",
"(  c #EC9E8A",
")  c #EDA090",
"_  c #EEA79E",
"`  c #EFA999",
"'  c #EFAA9B",
"]  c #F0B1A2",
"[  c #F1B6A8",
"{  c #F1B6A9",
"}  c #F2BBA8",
"|  c #F1B8AC",
" . c #F2B9AC",
".. c #F4C2B7",
"X. c #F3C1B8",
"o. c #F4C3BA",
"O. c #F4C6BD",
"+. c #F4C6BE",
"@. c #F5CBBC",
"#. c #F5C8BE",
"$. c #F5CBC2",
"%. c #F6D0C8",
"&. c #F6D1C8",
"*. c #F7D6D1",
"=. c #F7D7D2",
"-. c #F8D8D1",
";. c #F8D9D2",
":. c #F8D8D4",
">. c #F8D9D4",
",. c #F9DED8",
"<. c #F9E0D8",
"1. c #F9E0D9",
"2. c #F9E2DC",
"3. c #FAE3DD",
"4. c #FAE5E0",
"5. c #FAE6E1",
"6. c #FAE7E1",
"7. c #FAE7E3",
"8. c #FAE8E4",
"9. c #FBE9E5",
"0. c #FBEBE7",
"q. c #FCF2EF",
"w. c #FDF3F0",
"e. c #FDF4F2",
"r. c #FDF5F2",
"t. c #FDF4F3",
"y. c #FDF4F4",
"u. c #FFFDFD",
"i. c white",
"p. c None",
/* pixels */
"p.p.p.p.p.p.p.8 8 p.p.p.p.p.p.p.",
"p.p.p.p.p.* a U U d = p.p.p.p.p.",
"p.p.p.p.b 7.;.' #.4.w.M p.p.p.p.",
"p.p.p.I i.R e G   X Z i.E p.p.p.",
"p.p.z i.. H } %.{ L $ 5 i.v p.p.",
"p., ,.g S 6.i.&.0.i./ O m 2.< p.",
"p.s >.@ ~ 5.i.% + i.) @ < =.h p.",
"7 J +.> # i i. .9.i.i.P o o.Y w ",
"7 K O.* r 6 y.t.p 4 u.8.O X.T w ",
"p.f :.: t # _ i.# C i...o *.k p.",
"p., 1.V > q [ i.e.i.( # x 3.1 p.",
"p.p.c i.= u <.$.] @.3 & i.N p.p.",
"p.p.p.Q i.n   y F 2 D i.^ p.p.p.",
"p.p.p.p.B r.5.| ` -.q.A p.p.p.p.",
"p.p.p.p.p.- j W ! l ; p.p.p.p.p.",
"p.p.p.p.p.p.p.9 0 p.p.p.p.p.p.p."
};
