/* XPM */
static char *result[] = {
/* columns rows colors chars-per-pixel */
"64 64 85 1 ",
"  c #CE0200",
". c #D00700",
"X c #D10D00",
"o c #D21400",
"O c #D31B00",
"+ c #D52301",
"@ c #D62B05",
"# c #D6270A",
"$ c #D72D09",
"% c #D82F0D",
"& c #D7300A",
"* c #D8330D",
"= c #D72E10",
"- c #D73010",
"; c #D93612",
": c #D93915",
"> c #DA3D19",
", c #D83325",
"< c #DA3C22",
"1 c #DB411F",
"2 c #DB4323",
"3 c #DC4826",
"4 c #DC472A",
"5 c #DD4B2C",
"6 c #DE502F",
"7 c #DD4D32",
"8 c #DE5234",
"9 c #DF563A",
"0 c #DF593B",
"q c #E05B3E",
"w c #E05E43",
"e c #E16245",
"r c #E16449",
"t c #E36E54",
"y c #E47156",
"u c #E4735B",
"i c #E5785D",
"p c #E57461",
"a c #E67C64",
"s c #E67E6A",
"d c #E7826C",
"f c #E8866F",
"g c #E78370",
"h c #E88673",
"j c #E98974",
"k c #E78078",
"l c #E98D7A",
"z c #EA917D",
"x c #EB9482",
"c c #EC9985",
"v c #EB9788",
"b c #EC9C8B",
"n c #EC9E90",
"m c #EDA08F",
"M c #EEA493",
"N c #EFA79A",
"B c #EFAB9C",
"V c #F0AC9C",
"C c #EFADA1",
"Z c #F0AFA2",
"A c #F0B2A5",
"S c #F1B5AA",
"D c #F2BAAD",
"F c #F1B5B2",
"G c #F2BDB1",
"H c #F3C1B5",
"J c #F4C4BB",
"K c #F5C9BE",
"L c #F6CDC4",
"P c #F6D0C5",
"I c #F7D3CB",
"U c #F8D7CF",
"Y c #F7D7D0",
"T c #F7D8D1",
"R c #F8DBD5",
"E c #F9DED9",
"W c #FAE2DC",
"Q c #FAE5E1",
"! c #FBEAE5",
"~ c #FCEDEA",
"^ c #FCF1EE",
"/ c #FDF4F2",
"( c #FEF8F6",
") c #FFFFFF",
"_ c None",
/* pixels */
"________________________________________________________________",
"________________________________________________________________",
"________________________________________________________________",
"_______________________________::_______________________________",
"___________________________::::::::::___________________________",
"_______________________::::::*&&@&*::::::_______________________",
"_____________________::>*+ooO@;>1:@Ooo+*::::____________________",
"___________________:::+o@qdMJR!^^!EJMfw@o+::::__________________",
"_________________:>:Oo2bW))))))))))))))!M5oO:::_________________",
"_______________::>+o9G))))))))))))))))))))Heo+>::_______________",
"______________:::o*D)))))))IVlayyajNI())))))J>X*::______________",
"_____________:>%Xa())))(At3+oooOOOoO+1tN/)))))jo#>:_____________",
"____________:>+OV)))))M>oo@*Oo+:::::;@OX;c())))HO+>:____________",
"___________:>++L))))S>X+@;*1rSJ:*:::::::@X:M))))R*O>:___________",
"__________:>++I))))yXOo+2:Oa)))9+::::::::>+ e()))W%O>:__________",
"_________::%OK)))T>o@5MR)qo3())xo:::::::::>>o#I)))Y+@::_________",
"_________:;oM)))W#O>+9)))hoOJ))L+*;&*;::::::>OOL)))Do;:_________",
"________>>Xp)))T++>:;+L))JOoh)))< @;&+o+>::::>+OP)))sX>:________",
"________:+;~)))<o>::>ol))(> ,)))GARQQIb2O:::::>+;~)))4+::_______",
"_______:>oZ)))eX>:::;+8)))s5A)))))))))))uo>::::>o7)))JO::_______",
"_______:Oq)))BX::;:;+XoQ))())))))))))))))8O>:::;:Xb)))wo::______",
"______::oC)))>+>;Oo+6jJ))))))))))))))))))JO::::::@%!))JO::______",
"______:@2)))xX>*1ucR))))))))))(IHJ^)))))))8+:::::>os)))qO>______",
"_____::ox))/:@:+9))))))))))^Nt>+Oo*K))))))aO::::::%#!))BO::_____",
"_____:*@Y))Bo>:*@T)))))))))I o@:::O=/)))))so:::::::oN))Q;%:_____",
"_____:+0)))po:::oB)~DE))))))8+::::>XS)))))r+:::::::Ow)))9+:_____",
"_____:Os))(2@:::@qa:oOU)))))lo:::>*oI))))JO;:::::::*%Q))jo::____",
"____::ob))L+;:::1#o&>.a)))))JO:>>+.h)))))5OOO>::::::oS))SO::____",
"____::OH))No:::::::::+5)))))~:+OX;Z)))))~E!K0o;>::::ol))U@*:____",
"____:*@T))lo::::::;::*@E)))))0o0N()))))))))))ao>::::Ou))~:&::___",
"____:%*!))pO::::::::::oB)))))EE)))))))))))))))0+::;:+e))(3@::___",
"___::%>^))yO::::::::::Oy))))))))))))))))))))))Bo::::+0)))8+::___",
"___::%>/))yO:::::;::::%:^)))))))(Kxtwej/))))))~:&:::+0)))8+::___",
"____:&:!))iO:::::::::::OG)))))Tt>OoO+O >~))))))e+:::+e))(3@::___",
"____:&@R))jo:::::::::::Xs)))))F @:::::> h))))))ao:::ou))^:&::___",
"____:;OJ))Mo:::::::::::+5)))))~;&::::::Op))))))dO:::ol))T@;:____",
"____::oM))J+:::::::::::*@R)))))rO:::::: v))))))rO:::oA))DO::____",
"_____:of))/>@::::::;::::OC)))))bo:::>%.e))))))W**::*$W))lo::____",
"_____:Ow)))yO:::::::::::Oy)))))R@;*+X+c)))))))do:::O0)))wO:_____",
"_____:*$E))MX>::::::::::%:~)))))7 +8b!)))))))Z+*:::on))~:&:_____",
"_____::ob))~*%:::::::::::oD)))))MaE)))))))))mX%:::-+E))SO;:_____",
"______:+7)))jX::::::::::* k)))))))))))))))K8o*:::>ou)))rO:______",
"______::oS))/:+>;::::::+@eW))))))))))))/A0oO:::::&+E))LO::______",
"______::Or)))v.::::::;@b())))))))))))))b O:>::::>Xl)))tO::______",
"_______::OG)))9X>::::;OH)))))))))Qz2G))I+::::::1O<)))IO*:_______",
"_______::+<())^;+>::::oM)))))KE))G  d)))8+:::::++E)))9O>:_______",
"________:>Xg)))Ko+::::ol)/Kj6 s)))4o0)))ho:::>$XG)))xX>:________",
"_________:;OA)))LO+:::$0u*Oo+O0)))do%E))H+:::+oD)))LO&:_________",
"_________::@+Y)))K@o>:>%O@:::&;!))SOoN)Qb@:>OOH)))!*+>:_________",
"__________:>O;Q)))/8.%>:::::::oC))Q*@50+O>&.4!)))/:O>:__________",
"___________:>O*W))))b@X&>:::::Ou(By::%+:*o+l))))~<o>:___________",
"____________:>O+J))))^h@X+&:::>;@oO::&OX+a!))))U#O>>____________",
"_____________:>@ox)))))!cw*OoO+OO+OoO*qlW)))))mO+>:_____________",
"______________::;X2U))))))^GcurqqrulS~))))))E8X*>:______________",
"_______________:>:+OtP))))))))))))))))))))YiOO>::_______________",
"_________________;>*oOqS/)))))))))))))))DeOo*>:_________________",
"__________________::>:Oo:yzDT^))))^EDxu1oO*>::__________________",
"____________________::::@Ooo@:3664>@OoO@::::____________________",
"_______________________:::::*%@+@@@*:::::_______________________",
"__________________________::::::::::::__________________________",
"______________________________::::______________________________",
"________________________________________________________________",
"________________________________________________________________",
"________________________________________________________________"
};
