/* XPM */
static char *result[] = {
/* columns rows colors chars-per-pixel */
"128 128 84 1 ",
"  c #CE0300",
". c #D10C00",
"X c #D21400",
"o c #D31B00",
"O c #D52401",
"+ c #D62A04",
"@ c #D62709",
"# c #D72E09",
"$ c #D7300B",
"% c #D8330D",
"& c #D72F10",
"* c #D73011",
"= c #D83612",
"- c #D93915",
"; c #D93719",
": c #DA3D19",
"> c #D93620",
", c #DA3F21",
"< c #DB421D",
"1 c #DB4423",
"2 c #DC4926",
"3 c #DC462A",
"4 c #DD4C2C",
"5 c #DE512F",
"6 c #DD4E32",
"7 c #DE5233",
"8 c #DF5539",
"9 c #DF593B",
"0 c #E05C3D",
"q c #E05E42",
"w c #E16245",
"e c #E1654B",
"r c #E2694D",
"t c #E36C53",
"y c #E46F58",
"u c #E47157",
"i c #E4745C",
"p c #E5795E",
"a c #E57562",
"s c #E67B63",
"d c #E77F69",
"f c #E78167",
"g c #E7826C",
"h c #E8856E",
"j c #E78670",
"k c #E88673",
"l c #E98B76",
"z c #E98D79",
"x c #EA927D",
"c c #EB9583",
"v c #EB9986",
"b c #EA918B",
"n c #EC9D8B",
"m c #ED9F98",
"M c #EDA08E",
"N c #EDA393",
"B c #EEA79A",
"V c #EFAB9C",
"C c #EFAEA1",
"Z c #F0AFA1",
"A c #F0B2A4",
"S c #F1B6A9",
"D c #F2BAAD",
"F c #F2BDB2",
"G c #F3C1B5",
"H c #F4C5BA",
"J c #F4C8BE",
"K c #F5CCC3",
"L c #F6D0C7",
"P c #F7D3CB",
"I c #F8D6CF",
"U c #F7D6D0",
"Y c #F7D8D1",
"T c #F8DBD4",
"R c #F9DED9",
"E c #F9E2DC",
"W c #FAE6E1",
"Q c #FBEAE5",
"! c #FCEDEA",
"~ c #FCF1ED",
"^ c #FDF5F3",
"/ c #FEF8F7",
"( c #FFFFFF",
") c None",
/* pixels */
"))))))))))))))))))))))))))))))))))))))))))))))))))))))))))))))))))))))))))))))))))))))))))))))))))))))))))))))))))))))))))))))))",
"))))))))))))))))))))))))))))))))))))))))))))))))))))))))))))))))))))))))))))))))))))))))))))))))))))))))))))))))))))))))))))))))",
"))))))))))))))))))))))))))))))))))))))))))))))))))))))))))))))))))))))))))))))))))))))))))))))))))))))))))))))))))))))))))))))))",
"))))))))))))))))))))))))))))))))))))))))))))))))))))))))))))))))))))))))))))))))))))))))))))))))))))))))))))))))))))))))))))))))",
"))))))))))))))))))))))))))))))))))))))))))))))))))))))))))))))))))))))))))))))))))))))))))))))))))))))))))))))))))))))))))))))))",
"))))))))))))))))))))))))))))))))))))))))))))))))))))))))))))))))))))))))))))))))))))))))))))))))))))))))))))))))))))))))))))))))",
"))))))))))))))))))))))))))))))))))))))))))))))))))))))))))))))))))))))))))))))))))))))))))))))))))))))))))))))))))))))))))))))))",
"))))))))))))))))))))))))))))))))))))))))))))))))))))))))))))))))))))))))))))))))))))))))))))))))))))))))))))))))))))))))))))))))",
")))))))))))))))))))))))))))))))))))))))))))))))))))))))))--------------)))))))))))))))))))))))))))))))))))))))))))))))))))))))))",
"))))))))))))))))))))))))))))))))))))))))))))))))))))-------------------------)))))))))))))))))))))))))))))))))))))))))))))))))))",
"))))))))))))))))))))))))))))))))))))))))))))))))--------------------------------))))))))))))))))))))))))))))))))))))))))))))))))",
")))))))))))))))))))))))))))))))))))))))))))))---------------------------------------))))))))))))))))))))))))))))))))))))))))))))",
"))))))))))))))))))))))))))))))))))))))))))--:=------------=%#++OO++#$==---------------))))))))))))))))))))))))))))))))))))))))))",
"))))))))))))))))))))))))))))))))))))))))----=:------:%OoXoO+-124441=#OoXoO$-------------))))))))))))))))))))))))))))))))))))))))",
"))))))))))))))))))))))))))))))))))))))------:=---=+XX+4txZHTQ^/((/^QTKAcu0$oXO=-----------))))))))))))))))))))))))))))))))))))))",
"))))))))))))))))))))))))))))))))))))--------=:%oXo1sVE(((((((((((((((((((/WAj4oXo$----------))))))))))))))))))))))))))))))))))))",
")))))))))))))))))))))))))))))))))))------=-:+.OtnG/(((((((((((((((((((((((((((KNp#.@=---------))))))))))))))))))))))))))))))))))",
")))))))))))))))))))))))))))))))))-------::@X:xR((((((((((((((((((((((((((((((((((!N2.O---------)))))))))))))))))))))))))))))))))",
"))))))))))))))))))))))))))))))))--=:--:=O.=v/(((((((((((((((((((((((((((((((((((((((C4Xo=--------)))))))))))))))))))))))))))))))",
"))))))))))))))))))))))))))))))-----=-:+.4Z/(((((((((((((((((((((((((((((((((((((((((((GwXO:-------))))))))))))))))))))))))))))))",
")))))))))))))))))))))))))))))------:=X#V((((((((((((((((((!PGABNNNAFPQ((((((((((((((((((K1.%:------)))))))))))))))))))))))))))))",
"))))))))))))))))))))))))))))-----::o.w^((((((((((((((~Gct4=OoooXXXoOO%2rxSQ(((((((((((((((fXX-------))))))))))))))))))))))))))))",
"))))))))))))))))))))))))))-------=X4H(((((((((((((Slu=oXo+#==-----==%$OoXX%ehZ/((((((((((((Re.$:------))))))))))))))))))))))))))",
")))))))))))))))))))))))))------:$ t((((((((((((El1XXo#---=--------:=:---:=$oXX=pP((((((((((((xXO:------)))))))))))))))))))))))))",
"))))))))))))))))))))))))------:OXn(((((((((((Rs@.O=:---------=----------------+.OrJ(((((((((((H@X:------))))))))))))))))))))))))",
")))))))))))))))))))))))------:X*P((((((((((KrOX$:---------=OXo-----------------:=XX9S((((((((((!4.-:-----)))))))))))))))))))))))",
")))))))))))))))))))))))------X:Q(((((((((WrXX%------:=-%oXO7VV$%----------------=:=o.2P((((((((((eX-------))))))))))))))))))))))",
"))))))))))))))))))))))------X4/(((((((((D@.=--------=:==9NY(((4+-----------------:=::Xov((((((((((y -------)))))))))))))))))))))",
")))))))))))))))))))))------X6(((((((((Y0X+:-----+o*:-=OA((((((yo-----------------=---:$X1H(((((((((p.=-----)))))))))))))))))))))",
"))))))))))))))))))))-----:X4(((((((((Jo.=:--=+Xo:i2$--Xz((((((cX----------------=:------XXM(((((((((aX------))))))))))))))))))))",
")))))))))))))))))))-----:o,^((((((((nX@:--:#o<pD((wo--O7((((((Ko=---------------:=:-=:=::$.y(((((((((rX:-----)))))))))))))))))))",
")))))))))))))))))))----:o;!((((((((r.$:---OtW/((((lX--%OP((((((6O---------------=:=-:=:=---.4~((((((((6X:-----))))))))))))))))))",
"))))))))))))))))))----:#XG((((((((q.------Or((((((Fo---XV((((((kX-------------------------::X;W(((((((Q&O;----))))))))))))))))))",
")))))))))))))))))-----=.c((((((((q.:------#;!(((((^:+--Xl((((((Fo-------------------------=-:X;W(((((((Ho$-----)))))))))))))))))",
")))))))))))))))))-----Xf((((((((8X--------=OK((((((sX--O7((((((^1+---=%*==-------------------:X;!(((((((NX------))))))))))))))))",
"))))))))))))))))----:O:((((((((a.----------Xc((((((So--=OK((((((p oXooO++oXXO%--------------=-:X4((((((((6o;----))))))))))))))))",
")))))))))))))))------.N(((((((c.=;--------=O0((((((W$$--Xc((((((A=pxVGKPKHVf7OX#:---------------.e(((((((Po+-----)))))))))))))))",
")))))))))))))))----:.i(((((((NX$:------=---%+T((((((yo--X>((((((/((((((((((((Ev$o:---------------.g(((((((NX------))))))))))))))",
"))))))))))))))-----O*!((((((Q@O:-----------;XN((((((B.XX=p^((((((((((((((((((((^3X:=------=:----:#oK(((((((wo-----))))))))))))))",
"))))))))))))))-----XN(((((((yX:=-----------=or((((((T-uS^(((((((((((((((((((((((^1o:-------=-----:o1(((((((Go=----))))))))))))))",
")))))))))))))-----O1(((((((v.=--------------$%W(((((//(((((((((((((((((((((((((((/1o:-------------:Xt(((((((qX;----)))))))))))))",
")))))))))))))----:Xc((((((To+-------------=$O m(((((((((((((((((((((((((((((((((((Ko=-------=------=.C((((((Ho=----)))))))))))))",
"))))))))))))-----O;!((((((eX:----------%oXO+9xR((((((((((((((((((((((((((((((((((((uo------------=-:o4(((((((wX:----))))))))))))",
"))))))))))))----:Xn((((((Ko=--------#oX+8nKW(((((((((((((((((((((((((((((((((((((((Fo=---------------XV((((((KO%----))))))))))))",
"))))))))))))----+:^((((((uX:----:$XX%wNE(((((((((((((((((((((((((((((((((((((((((((Q-#:-------------:o1(((((((eX-----)))))))))))",
")))))))))))-----Xh((((((Po$-----%1uS~(((((((((((((((((((((((((TSNnMS!(((((((((((((((wo----------------.N((((((So-----)))))))))))",
")))))))))))----$$R((((((rX:-----ol(((((((((((((((((((((((^Fp72+ooXXo%0P(((((((((((((cX----------------O:^(((((^1+----)))))))))))",
")))))))))))----oq((((((PO%------O8(((((((((((((((((((((Lt=XXO+$---:=$.oY((((((((((((Ao----------------:XN((((((ro-----))))))))))",
"))))))))))-----Xd((((((kX:------*OP((((((((((((((((((((b +-----------:.t((((((((((((Fo=----------------oq((((((VX-----))))))))))",
"))))))))))----=OH(((((^:O--------Xc((((((((((((((((((((W=$------------%OP(((((((((((Zo-----------------#=Q(((((!:+----))))))))))",
"))))))))))----+1/(((((PO%--------o0(((((((((((((((((((((eo-------------.n(((((((((((lX------------------XZ((((((yo:---))))))))))",
"))))))))))----Xu((((((NX---------+1/((/Pnsc!((((((((((((fX;------------Xk(((((((((((9O------------------Xu((((((NX-----)))))))))",
")))))))))-----oV((((((qo---------=%ACw<OXX.#E(((((((((((Co------------:Xn((((((((((Ko=------------------$-Q(((((Y+%----)))))))))",
")))))))))----=+Y(((((W%$-----------OXo+%---.a(((((((((((E$$-----------+@R((((((((((so:-------------------oS((((((7O----)))))))))",
")))))))))----+2/(((((Do------------=------=+1/(((((((((((0o----------- g((((((((((N.+=-------------------Xl((((((po----)))))))))",
")))))))))----ot((((((lX---------------------oF(((((((((((NX---------# t((((((((((H*::OXO=----------------o0((((((nX-----))))))))",
")))))))))----Xl((((((ro---------------------Xk(((((((((((UO%------$XXx(((((((((((Q/(QPn2X@-:-------------+<^(((((Go=----))))))))",
"))))))))-----oV((((((4+=--------------------O6((((((((((((7O----+X+5J(((((((((((((((((((D:X--------------%+P(((((T$%----))))))))",
"))))))))----=OH(((((E%$---------------------=OK(((((((((((cX-+XX=lQ(((((((((((((((((((((((r.--------------oA(((((Q-#----))))))))",
"))))))))----%#T(((((LO=----------------------Xx(((((((((((L X=iD/((((((((((((((((((((((((((wX:------------XM(((((^<+-----)))))))",
"))))))))----#-W(((((Fo=----------------------o0(((((((((((~lS^(((((((((((((((((((((((((((((/1O------------Xx(((((/1+-----)))))))",
"))))))))----+1^(((((Vo---------------=-------%#T((((((((((((((((((((((((((((((((((((((((((((Fo------------Xs((((((4O-----)))))))",
"))))))))----+2((((((NX---------=-------------=oF((((((((((((((((((((((((((((((((((((((((((((/,O-----------oi((((((7O-----)))))))",
"))))))))----O5((((((MX------------------------ov(((((((((((((((((((((((((((((((((((((((((((((lX--=--------ou((((((7O-----)))))))",
"))))))))----O4((((((nX------------------------o9(((((((((((((((((((((EGNlklMH/(((((((((((((((P+%----------oy((((((7O-----)))))))",
"))))))))----+4((((((NX------------------------=+T((((((((((((((((QVs4+oXXXXXo2F(((((((((((((((7O----------oi((((((7O-----)))))))",
"))))))))----+1/(((((VX-----------=------------:XN((((((((((((~PNe$XXO$=------o.h((((((((((((((sX----------os((((((5O-----)))))))",
"))))))))----+:!(((((Do=------------------------ow((((((((((((2XXo#:=----------* n(((((((((((((No----------Xl(((((/2+-----)))))))",
"))))))))----$#E(((((KO=------------------------+-!(((((((((((e.:--------------:o0(((((((((((((Go=---------Xn(((((~1+-----)))))))",
"))))))))---==OK(((((T#$-------------------------XA(((((((((((Bo------------=--:%OP((((((((((((KO=---------oC(((((Q-#----))))))))",
"))))))))-----oA(((((/2+-------------------------Xi(((((((((((!:#----------=:=:=:XZ((((((((((((P+$--------=OP(((((R$$----))))))))",
"))))))))-----Xc((((((0o-------------------------+:^(((((((((((wO----------:=:==:XS((((((((((((Ho=--------+-!(((((HO=----))))))))",
")))))))))----op((((((gX-------------------------=OL(((((((((((sX---------------$#W((((((((((((VX---------O8((((((NX-----))))))))",
")))))))))----O7((((((Co-------------------=------oV(((((((((((Co--------------:.i(((((((((((((ao---------Xg((((((sX----)))))))))",
")))))))))----$%W(((((T+$-------------------------op(((((((((((W$$------------:ooT((((((((((((/2O---------XC((((((9O----)))))))))",
")))))))))-----oD((((((7O-------------------------O1/(((((((((((eo------------X-K(((((((((((((Zo---------$$E(((((E$$----)))))))))",
")))))))))-----Xf((((((cX--------------------------oF(((((((((((NX----------O r(((((((((((((((,O---------oe((((((ZX:=---)))))))))",
"))))))))))---:O4((((((Jo=-------------------------Xh(((((((((((U+%------%o.-Z(((((((((((((((BX---------:XN((((((pX-:---)))))))))",
"))))))))))----=OK(((((!-+---------=---------------O4((((((((((((8O---=OX+wn((((((((((((((((L#+---------$#R(((((/1+=---))))))))))",
"))))))))))-----Xz((((((pX---------=;--------------=oK(((((((((((cX=OXo1xW(((((((((((((((((GoO:---------o9((((((So-----))))))))))",
")))))))))))----oe((((((FX------------=-------------Xc(((((((((((K o2lP(((((((((((((((((((FXO:----------.z((((((pX-----))))))))))",
")))))))))))----#:Q((((((9o:------------------------o9(((((((((((~NP((((((((((((((((((((^zO+:----------+&Q(((((/1+=---)))))))))))",
")))))))))))----:.v((((((FX=------------------------$+R((((((((((((((((((((((((((((((((A+.$:----------:Xz((((((JO=----)))))))))))",
")))))))))))----=O4(((((((9o:----------------------:+XR((((((((((((((((((((((((((((((K9X@-------------+@Q((((((aX-----)))))))))))",
"))))))))))))-----XA((((((FX---------------------=OXXf((((((((((((((((((((((((((((WArXo=:-------------oc((((((R##----))))))))))))",
"))))))))))))-----o2(((((((6o-----------------:#.O<gP(((((((((((((((((((((((((((Kp+Xo=---------------+;/((((((aX:----))))))))))))",
")))))))))))))-----XV((((((G.%;---------------#3vP(((((((((((((((((((((((((((((WX.$--------=--------- z((((((RO$----)))))))))))))",
")))))))))))))----:o6(((((((gX----------------Xf((((((((((((((((((((((((//((((((wo-----------------:o7(((((((uX:----)))))))))))))",
"))))))))))))))-----XD(((((((7o:--------------Ow((((((((((((((((((((((Pn;N((((((MX----------------:+@E((((((Po=----))))))))))))))",
"))))))))))))))-----O4(((((((Po+:-------------O6((((((((((((((((((((n:OX i((((((PO=--------=------=.B(((((((sX-----))))))))))))))",
")))))))))))))))-----Xk(((((((z.------=-------#-Q(((((((((((((((((((a =:+:!((((((9O--------------:.t(((((((Do%-----))))))))))))))",
")))))))))))))))-----#XH(((((((y.:------------%+T((((((((((Ppx((((((KO=--XA((((((zX-------------:o,/((((((~*O:----)))))))))))))))",
"))))))))))))))))----:X6((((((((6X:-----------=+K((((((/Hf2O ;(((((((4O--Xf((((((NX------------:o@E(((((((y.:----))))))))))))))))",
"))))))))))))))))------oc(((((((~;o:----------=OH((^Dnu-oXO=-oH((((((sX--+3/(((((P+=----------:O+I(((((((Fo*-----))))))))))))))))",
")))))))))))))))))-----$XD(((((((Q&o:---------=ONLp:XXo#=----Xk((((((vX--=oG((((((9O---------:OXG(((((((W$O-----)))))))))))))))))",
"))))))))))))))))))----:O@E(((((((Q=X:---------:%Xo+---------o8((((((Ho---Xc((((((vX--------:OXG((((((((7X:-----)))))))))))))))))",
"))))))))))))))))))-----:X2((((((((~3.=:--------==-----------%+U((((((2O--op((((((AO=------:X&Y((((((((eX:-----))))))))))))))))))",
")))))))))))))))))))-----:Xe(((((((((r.%:---------------------oZ((((((gX--O2/((Kx4#------:-.:W((((((((c.=-----)))))))))))))))))))",
"))))))))))))))))))))----:-.a(((((((((x.o:--------------------Xz((((((Do---#nn2oXO=-----:+.r(((((((((VX%-----))))))))))))))))))))",
")))))))))))))))))))))-----=.i(((((((((H:.=-------------------O0((((((/2+---oXO=--------X@V(((((((((cX@:-----))))))))))))))))))))",
"))))))))))))))))))))))-----= a((((((((((gXo:-----------------=OL(((^Zi:%-------------+.w!(((((((((n #:-----)))))))))))))))))))))",
"))))))))))))))))))))))------=.t((((((((((D-.O:----------------Xn(Nw%XX=:----------:@.ON((((((((((vX$:-----))))))))))))))))))))))",
")))))))))))))))))))))))-------X4!(((((((((/A2.O=:-------------=:%Xo#-------------+.:NQ(((((((((/tX$:-----)))))))))))))))))))))))",
"))))))))))))))))))))))))------:X#P(((((((((((V4Xo$------------:$#:------------=O.-x^((((((((((~6.=------))))))))))))))))))))))))",
")))))))))))))))))))))))))------:OXN((((((((((((A9OXX+=---------------------+oXo1N((((((((((((H@o-------)))))))))))))))))))))))))",
"))))))))))))))))))))))))))------:#XeR((((((((((((RZa<oXo+$-----------==+oXo=rNP((((((((((((^fXO:------))))))))))))))))))))))))))",
")))))))))))))))))))))))))))-------=Xov(((((((((((((((Hxt1+oXoXXoooXoXoO<wgS^((((((((((((((S*.%:------)))))))))))))))))))))))))))",
")))))))))))))))))))))))))))))------:#.0E((((((((((((((((/TGBxjaiiafzNSL^((((((((((((((((/i.O:=------))))))))))))))))))))))))))))",
"))))))))))))))))))))))))))))))--------XOrK((((((((((((((((((((((((((((((((((((((((((((Tp*X=:------))))))))))))))))))))))))))))))",
")))))))))))))))))))))))))))))))-------:%XorK((((((((((((((((((((((((((((((((((((((((Ef@.#--------)))))))))))))))))))))))))))))))",
")))))))))))))))))))))))))))))))))-------:=XoeH((((((((((((((((((((((((((((((((((((YaoX$:--------))))))))))))))))))))))))))))))))",
"))))))))))))))))))))))))))))))))))---------=oX2pZ!((((((((((((((((((((((((((((/Hf7OX%:-=------))))))))))))))))))))))))))))))))))",
"))))))))))))))))))))))))))))))))))))---------=+XX%yVY((((((((((((((((((((((WSs<oXO%:--------))))))))))))))))))))))))))))))))))))",
"))))))))))))))))))))))))))))))))))))))----------:+oXO4pcFT~((((((((((^EHNg9#oX+=-----------)))))))))))))))))))))))))))))))))))))",
"))))))))))))))))))))))))))))))))))))))))--------=--:=OoXo+:790weee097<$oXXO$------------))))))))))))))))))))))))))))))))))))))))",
"))))))))))))))))))))))))))))))))))))))))))----------=:---%+OOOOooOOO++$=--------------))))))))))))))))))))))))))))))))))))))))))",
"))))))))))))))))))))))))))))))))))))))))))))----------------------------------------))))))))))))))))))))))))))))))))))))))))))))",
")))))))))))))))))))))))))))))))))))))))))))))))----------------------------------)))))))))))))))))))))))))))))))))))))))))))))))",
")))))))))))))))))))))))))))))))))))))))))))))))))))---------------------------))))))))))))))))))))))))))))))))))))))))))))))))))",
")))))))))))))))))))))))))))))))))))))))))))))))))))))))------------------)))))))))))))))))))))))))))))))))))))))))))))))))))))))",
"))))))))))))))))))))))))))))))))))))))))))))))))))))))))))))))----))))))))))))))))))))))))))))))))))))))))))))))))))))))))))))))",
"))))))))))))))))))))))))))))))))))))))))))))))))))))))))))))))))))))))))))))))))))))))))))))))))))))))))))))))))))))))))))))))))",
"))))))))))))))))))))))))))))))))))))))))))))))))))))))))))))))))))))))))))))))))))))))))))))))))))))))))))))))))))))))))))))))))",
"))))))))))))))))))))))))))))))))))))))))))))))))))))))))))))))))))))))))))))))))))))))))))))))))))))))))))))))))))))))))))))))))",
"))))))))))))))))))))))))))))))))))))))))))))))))))))))))))))))))))))))))))))))))))))))))))))))))))))))))))))))))))))))))))))))))",
"))))))))))))))))))))))))))))))))))))))))))))))))))))))))))))))))))))))))))))))))))))))))))))))))))))))))))))))))))))))))))))))))",
"))))))))))))))))))))))))))))))))))))))))))))))))))))))))))))))))))))))))))))))))))))))))))))))))))))))))))))))))))))))))))))))))",
"))))))))))))))))))))))))))))))))))))))))))))))))))))))))))))))))))))))))))))))))))))))))))))))))))))))))))))))))))))))))))))))))"
};
